<?xml version="1.0" standalone="no"?>
<!DOCTYPE svg PUBLIC "-//W3C//DTD SVG 20010904//EN"
 "http://www.w3.org/TR/2001/REC-SVG-20010904/DTD/svg10.dtd">
<svg version="1.0" xmlns="http://www.w3.org/2000/svg"
 width="363.000000pt" height="151.000000pt" viewBox="0 0 363.000000 151.000000"
 preserveAspectRatio="xMidYMid meet">

<g transform="translate(0.000000,151.000000) scale(0.100000,-0.100000)"
fill="#CF0A2C" stroke="none">
<path d="M0 675 l0 -455 155 0 155 0 0 210 0 210 270 0 270 0 0 -210 0 -210
155 0 155 0 0 455 0 455 -155 0 -155 0 0 -190 0 -190 -270 0 -270 0 0 190 0
190 -155 0 -155 0 0 -455z"/>
<path d="M1420 1120 c-74 -4 -136 -8 -137 -9 -2 0 -3 -28 -3 -62 l0 -61 28 6
c125 25 450 34 561 15 82 -15 121 -48 121 -104 0 -118 -99 -154 -427 -155
l-173 0 0 -48 0 -49 210 -7 c220 -7 291 -16 352 -47 56 -28 78 -63 78 -122 0
-44 -4 -53 -35 -83 -49 -46 -88 -56 -249 -61 -124 -5 -374 8 -448 23 l-28 6 0
-61 c0 -58 1 -61 28 -68 53 -14 701 -9 782 6 185 34 266 95 286 218 19 122
-64 198 -266 240 -48 10 -47 11 41 37 194 56 253 227 111 321 -94 62 -402 86
-832 65z"/>
<path d="M3065 1123 c-161 -10 -314 -40 -400 -78 -154 -68 -245 -252 -215
-437 33 -211 158 -317 432 -364 111 -19 484 -29 637 -17 l103 8 0 65 0 65 -28
-1 c-16 -1 -96 -7 -179 -14 -428 -34 -618 78 -603 356 7 137 64 215 192 263
116 43 321 54 511 26 55 -8 102 -15 105 -15 3 0 4 30 4 67 l-2 68 -93 6 c-96
7 -374 8 -464 2z"/>
</g>
</svg>
